<svg xmlns:inkscape="http://www.inkscape.org/namespaces/inkscape" xmlns:sodipodi="http://sodipodi.sourceforge.net/DTD/sodipodi-0.dtd" xmlns="http://www.w3.org/2000/svg" xmlns:svg="http://www.w3.org/2000/svg" version="1.1" id="svg2" xml:space="preserve" sodipodi:docname="Solvify-logo-FC.eps" viewBox="123.97 66.94 231.75 63.09"><defs id="defs6"/><sodipodi:namedview id="namedview4" pagecolor="#ffffff" bordercolor="#666666" borderopacity="1.0" inkscape:pageshadow="2" inkscape:pageopacity="0.0" inkscape:pagecheckerboard="0"/><g id="g8" inkscape:groupmode="layer" inkscape:label="ink_ext_XXXXXX" transform="matrix(1.3333333,0,0,-1.3333333,0,192)"><g id="g10" transform="scale(0.1)"><path d="m 1529.16,933.363 h 59.16 V 718.207 h 134.09 v -53.793 h -193.25 v 268.949" style="fill:#242d49;fill-opacity:1;fill-rule:nonzero;stroke:none" id="path12"/><path d="m 2029,933.363 h 59.17 V 664.414 H 2029 v 268.949" style="fill:#242d49;fill-opacity:1;fill-rule:nonzero;stroke:none" id="path14"/><path d="m 2350.58,822.328 h -87.13 v -53.789 h 87.13 v 53.789" style="fill:#242d49;fill-opacity:1;fill-rule:nonzero;stroke:none" id="path16"/><path d="m 2222.26,879.574 h 145.62 v 53.789 H 2163.09 V 664.414 h 59.17 v 61.785 42.34 53.789 29.781 27.465" style="fill:#242d49;fill-opacity:1;fill-rule:nonzero;stroke:none" id="path18"/><path d="m 2505.37,770.465 -103.36,162.898 h 69.16 l 64.16,-107.957 65.32,107.957 h 67.24 L 2564.53,771.617 V 664.426 h -59.16 v 106.039" style="fill:#242d49;fill-opacity:1;fill-rule:nonzero;stroke:none" id="path20"/><path d="m 1000.97,517.219 v -41.594 h 12.05 c 12.85,0 21.23,8.652 21.23,20.625 v 0.176 c 0,11.965 -8.38,20.793 -21.23,20.793 z m -10.751,9.785 h 22.801 c 19.22,0 32.51,-13.195 32.51,-30.402 v -0.176 c 0,-17.215 -13.29,-30.586 -32.51,-30.586 h -22.801 v 61.164" style="fill:#242d49;fill-opacity:1;fill-rule:nonzero;stroke:none" id="path22"/><path d="m 1061.38,511.98 h 10.57 v -46.14 h -10.57 z m -0.44,17.114 h 11.36 v -10.039 h -11.36 v 10.039" style="fill:#242d49;fill-opacity:1;fill-rule:nonzero;stroke:none" id="path24"/><path d="m 1089.23,511.98 h 10.57 v -7.085 c 2.97,4.285 7.25,8.035 14.41,8.035 10.4,0 16.43,-6.985 16.43,-17.649 V 465.84 h -10.57 v 26.223 c 0,7.156 -3.58,11.257 -9.87,11.257 -6.12,0 -10.4,-4.277 -10.4,-11.445 V 465.84 h -10.57 v 46.14" style="fill:#242d49;fill-opacity:1;fill-rule:nonzero;stroke:none" id="path26"/><path d="m 1177.67,527.004 h 45.34 v -9.609 h -34.61 v -15.911 h 30.68 v -9.609 h -30.68 v -16.426 h 35.05 v -9.609 h -45.78 v 61.164" style="fill:#242d49;fill-opacity:1;fill-rule:nonzero;stroke:none" id="path28"/><path d="m 1257.21,496.504 10.66,15.476 h 11.27 l -16.25,-22.546 16.95,-23.594 h -11.54 l -11.35,16.426 -11.27,-16.426 h -11.28 l 16.87,23.508 -16.25,22.632 h 11.52 l 10.67,-15.476" style="fill:#242d49;fill-opacity:1;fill-rule:nonzero;stroke:none" id="path30"/><path d="m 1294.74,478.605 v 24.286 h -5.86 v 9.089 h 5.86 v 12.668 h 10.57 V 511.98 h 12.4 v -9.089 h -12.4 v -22.625 c 0,-4.114 2.1,-5.774 5.68,-5.774 2.35,0 4.46,0.52 6.54,1.574 v -8.656 c -2.6,-1.48 -5.49,-2.351 -9.51,-2.351 -7.78,0 -13.28,3.41 -13.28,13.546" style="fill:#242d49;fill-opacity:1;fill-rule:nonzero;stroke:none" id="path32"/><path d="m 1362.26,492.141 c -0.71,6.812 -4.73,12.144 -11.71,12.144 -6.47,0 -11.02,-4.976 -11.98,-12.144 z m -34.16,-3.411 v 0.176 c 0,13.196 9.34,24.024 22.53,24.024 14.68,0 22.11,-11.524 22.11,-24.805 0,-0.969 -0.09,-1.926 -0.18,-2.969 h -33.89 c 1.13,-7.519 6.45,-11.711 13.27,-11.711 5.15,0 8.82,1.914 12.49,5.5 l 6.2,-5.5 c -4.37,-5.242 -10.39,-8.648 -18.86,-8.648 -13.37,0 -23.67,9.695 -23.67,23.933" style="fill:#242d49;fill-opacity:1;fill-rule:nonzero;stroke:none" id="path34"/><path d="m 1386.85,511.98 h 10.57 v -10.398 c 2.87,6.902 8.21,11.621 16.34,11.27 v -11.18 h -0.62 c -9.25,0 -15.72,-6.035 -15.72,-18.274 V 465.84 h -10.57 v 46.14" style="fill:#242d49;fill-opacity:1;fill-rule:nonzero;stroke:none" id="path36"/><path d="m 1426.31,511.98 h 10.57 v -7.085 c 2.97,4.285 7.25,8.035 14.41,8.035 10.41,0 16.43,-6.985 16.43,-17.649 V 465.84 h -10.57 v 26.223 c 0,7.156 -3.58,11.257 -9.87,11.257 -6.11,0 -10.4,-4.277 -10.4,-11.445 V 465.84 h -10.57 v 46.14" style="fill:#242d49;fill-opacity:1;fill-rule:nonzero;stroke:none" id="path38"/><path d="m 1512.5,482.449 v 3.137 c -2.71,1.055 -6.29,1.848 -10.48,1.848 -6.81,0 -10.84,-2.891 -10.84,-7.7 v -0.171 c 0,-4.458 3.93,-6.997 9.01,-6.997 6.99,0 12.31,4.016 12.31,9.883 z m -31.63,-3.328 v 0.176 c 0,9.961 7.77,14.851 19.05,14.851 5.15,0 8.82,-0.789 12.4,-1.921 v 1.132 c 0,6.551 -4.01,10.047 -11.44,10.047 -5.15,0 -9,-1.133 -13.19,-2.879 l -2.79,8.301 c 5.06,2.266 10.04,3.762 17.39,3.762 6.88,0 12.05,-1.836 15.28,-5.156 3.4,-3.325 4.98,-8.215 4.98,-14.243 V 465.84 h -10.3 v 5.762 c -3.15,-3.75 -7.97,-6.719 -15.03,-6.719 -8.65,0 -16.35,4.98 -16.35,14.238" style="fill:#242d49;fill-opacity:1;fill-rule:nonzero;stroke:none" id="path40"/><path d="m 1570.19,527.004 h 10.74 V 465.84 h -10.74 v 61.164" style="fill:#242d49;fill-opacity:1;fill-rule:nonzero;stroke:none" id="path42"/><path d="m 1615.76,517.043 h -19.38 v 9.961 H 1646 v -9.961 h -19.4 V 465.84 h -10.84 v 51.203" style="fill:#242d49;fill-opacity:1;fill-rule:nonzero;stroke:none" id="path44"/><path d="m 1650.07,497.82 h 25.86 v -10.386 h -25.86 v 10.386" style="fill:#242d49;fill-opacity:1;fill-rule:nonzero;stroke:none" id="path46"/><path d="m 1756.68,488.652 v 0.164 c 0,8.125 -5.84,14.856 -14.15,14.856 -8.46,0 -13.88,-6.629 -13.88,-14.68 v -0.176 c 0,-8.035 5.85,-14.753 14.06,-14.753 8.56,0 13.97,6.628 13.97,14.589 z m -38.6,0 v 0.164 c 0,13.207 10.48,24.114 24.63,24.114 14.16,0 24.55,-10.742 24.55,-23.938 v -0.176 c 0,-13.101 -10.48,-24.019 -24.73,-24.019 -14.05,0 -24.45,10.75 -24.45,23.855" style="fill:#242d49;fill-opacity:1;fill-rule:nonzero;stroke:none" id="path48"/><path d="m 1778.84,488.652 v 0.164 c 0,13.11 10.13,24.114 24.03,24.114 8.64,0 14.06,-3.223 18.43,-7.95 l -6.64,-7.07 c -3.23,3.406 -6.63,5.762 -11.88,5.762 -7.7,0 -13.37,-6.629 -13.37,-14.68 v -0.176 c 0,-8.211 5.67,-14.753 13.8,-14.753 4.98,0 8.65,2.265 11.97,5.671 l 6.38,-6.289 c -4.54,-5.066 -9.87,-8.648 -18.87,-8.648 -13.72,0 -23.85,10.75 -23.85,23.855" style="fill:#242d49;fill-opacity:1;fill-rule:nonzero;stroke:none" id="path50"/><path d="m 1834.72,529.629 h 10.57 v -24.734 c 2.97,4.285 7.24,8.035 14.42,8.035 10.39,0 16.41,-6.985 16.41,-17.649 V 465.84 h -10.57 v 26.223 c 0,7.156 -3.58,11.257 -9.87,11.257 -6.11,0 -10.39,-4.277 -10.39,-11.445 V 465.84 h -10.57 v 63.789" style="fill:#242d49;fill-opacity:1;fill-rule:nonzero;stroke:none" id="path52"/><path d="m 1923.15,527.004 h 11.45 l 18.62,-28.93 18.61,28.93 h 11.43 V 465.84 h -10.74 v 43.867 l -19.3,-28.84 h -0.36 l -19.13,28.656 V 465.84 h -10.58 v 61.164" style="fill:#242d49;fill-opacity:1;fill-rule:nonzero;stroke:none" id="path54"/><path d="m 2029.79,482.449 v 3.137 c -2.72,1.055 -6.3,1.848 -10.5,1.848 -6.82,0 -10.83,-2.891 -10.83,-7.7 v -0.171 c 0,-4.458 3.94,-6.997 8.99,-6.997 7,0 12.34,4.016 12.34,9.883 z m -31.65,-3.328 v 0.176 c 0,9.961 7.79,14.851 19.06,14.851 5.16,0 8.83,-0.789 12.4,-1.921 v 1.132 c 0,6.551 -4.02,10.047 -11.45,10.047 -5.14,0 -8.98,-1.133 -13.18,-2.879 l -2.8,8.301 c 5.07,2.266 10.05,3.762 17.39,3.762 6.9,0 12.06,-1.836 15.28,-5.156 3.42,-3.325 4.98,-8.215 4.98,-14.243 V 465.84 h -10.3 v 5.762 c -3.15,-3.75 -7.95,-6.719 -15.03,-6.719 -8.65,0 -16.35,4.98 -16.35,14.238" style="fill:#242d49;fill-opacity:1;fill-rule:nonzero;stroke:none" id="path56"/><path d="m 2055.95,511.98 h 10.58 v -10.398 c 2.87,6.902 8.2,11.621 16.33,11.27 v -11.18 h -0.62 c -9.26,0 -15.71,-6.035 -15.71,-18.274 V 465.84 h -10.58 v 46.14" style="fill:#242d49;fill-opacity:1;fill-rule:nonzero;stroke:none" id="path58"/><path d="m 2095.5,529.629 h 10.57 v -38.106 l 19.13,20.457 h 12.84 l -18.34,-18.789 18.95,-27.351 h -12.4 l -13.63,20.012 -6.55,-6.809 V 465.84 h -10.57 v 63.789" style="fill:#242d49;fill-opacity:1;fill-rule:nonzero;stroke:none" id="path60"/><path d="m 2149.8,511.98 h 10.58 v -7.085 c 2.96,4.285 7.24,8.035 14.4,8.035 10.41,0 16.44,-6.985 16.44,-17.649 V 465.84 h -10.58 v 26.223 c 0,7.156 -3.57,11.257 -9.87,11.257 -6.11,0 -10.39,-4.277 -10.39,-11.445 V 465.84 h -10.58 v 46.14" style="fill:#242d49;fill-opacity:1;fill-rule:nonzero;stroke:none" id="path62"/><path d="m 2235.9,482.449 v 3.137 c -2.71,1.055 -6.29,1.848 -10.48,1.848 -6.82,0 -10.84,-2.891 -10.84,-7.7 v -0.171 c 0,-4.458 3.94,-6.997 9,-6.997 7,0 12.32,4.016 12.32,9.883 z m -31.62,-3.328 v 0.176 c 0,9.961 7.77,14.851 19.04,14.851 5.16,0 8.82,-0.789 12.4,-1.921 v 1.132 c 0,6.551 -4.01,10.047 -11.43,10.047 -5.16,0 -9.01,-1.133 -13.2,-2.879 l -2.79,8.301 c 5.06,2.266 10.03,3.762 17.39,3.762 6.89,0 12.04,-1.836 15.28,-5.156 3.4,-3.325 4.98,-8.215 4.98,-14.243 V 465.84 h -10.3 v 5.762 c -3.15,-3.75 -7.96,-6.719 -15.03,-6.719 -8.65,0 -16.34,4.98 -16.34,14.238" style="fill:#242d49;fill-opacity:1;fill-rule:nonzero;stroke:none" id="path64"/><path d="m 2297.02,488.816 v 0.176 c 0,8.918 -6.29,14.77 -13.37,14.77 -7.25,0 -13.27,-5.586 -13.27,-14.77 v -0.176 c 0,-8.906 6.11,-14.753 13.27,-14.753 7.08,0 13.37,5.925 13.37,14.753 z m -37.3,0 v 0.176 c 0,15.293 10.39,23.938 21.39,23.938 7.61,0 12.41,-3.75 15.74,-8.114 v 24.813 h 10.57 V 465.84 h -10.57 v 7.683 c -3.4,-4.793 -8.22,-8.64 -15.74,-8.64 -10.82,0 -21.39,8.64 -21.39,23.933" style="fill:#242d49;fill-opacity:1;fill-rule:nonzero;stroke:none" id="path66"/><path d="m 2320.3,471.875 4.73,7.168 c 5.05,-3.762 10.39,-5.684 15.1,-5.684 4.55,0 7.17,1.922 7.17,4.981 v 0.168 c 0,3.594 -4.89,4.812 -10.31,6.465 -6.82,1.922 -14.42,4.722 -14.42,13.55 v 0.168 c 0,8.743 7.26,14.075 16.43,14.075 5.77,0 12.06,-2.012 16.95,-5.246 l -4.2,-7.52 c -4.45,2.715 -9.17,4.375 -13.02,4.375 -4.1,0 -6.45,-1.926 -6.45,-4.539 v -0.18 c 0,-3.406 4.98,-4.801 10.39,-6.558 6.72,-2.09 14.33,-5.149 14.33,-13.45 v -0.175 c 0,-9.7 -7.52,-14.5 -17.12,-14.5 -6.56,0 -13.81,2.351 -19.58,6.902" style="fill:#242d49;fill-opacity:1;fill-rule:nonzero;stroke:none" id="path68"/><path d="m 2368.76,488.652 v 0.164 c 0,13.11 10.13,24.114 24.02,24.114 8.65,0 14.07,-3.223 18.44,-7.95 l -6.64,-7.07 c -3.24,3.406 -6.64,5.762 -11.88,5.762 -7.7,0 -13.36,-6.629 -13.36,-14.68 v -0.176 c 0,-8.211 5.66,-14.753 13.79,-14.753 4.98,0 8.65,2.265 11.97,5.671 l 6.38,-6.289 c -4.55,-5.066 -9.87,-8.648 -18.88,-8.648 -13.71,0 -23.84,10.75 -23.84,23.855" style="fill:#242d49;fill-opacity:1;fill-rule:nonzero;stroke:none" id="path70"/><path d="m 2424.63,529.629 h 10.58 v -24.734 c 2.98,4.285 7.26,8.035 14.41,8.035 10.4,0 16.44,-6.985 16.44,-17.649 V 465.84 h -10.58 v 26.223 c 0,7.156 -3.59,11.257 -9.86,11.257 -6.13,0 -10.41,-4.277 -10.41,-11.445 V 465.84 h -10.58 v 63.789" style="fill:#242d49;fill-opacity:1;fill-rule:nonzero;stroke:none" id="path72"/><path d="m 2513.88,492.141 c -0.69,6.812 -4.71,12.144 -11.71,12.144 -6.45,0 -11,-4.976 -11.96,-12.144 z m -34.16,-3.411 v 0.176 c 0,13.196 9.35,24.024 22.54,24.024 14.67,0 22.12,-11.524 22.12,-24.805 0,-0.969 -0.09,-1.926 -0.19,-2.969 h -33.9 c 1.15,-7.519 6.47,-11.711 13.28,-11.711 5.17,0 8.83,1.914 12.5,5.5 l 6.2,-5.5 c -4.36,-5.242 -10.39,-8.648 -18.88,-8.648 -13.36,0 -23.67,9.695 -23.67,23.933" style="fill:#242d49;fill-opacity:1;fill-rule:nonzero;stroke:none" id="path74"/><path d="m 2540.85,502.891 h -5.86 v 8.82 h 5.86 v 3.406 c 0,5.071 1.3,8.914 3.74,11.36 2.47,2.449 5.86,3.671 10.41,3.671 3.67,0 6.21,-0.519 8.56,-1.222 v -8.906 c -2.1,0.695 -3.94,1.132 -6.2,1.132 -4.03,0 -6.11,-2.187 -6.11,-7.004 v -2.515 h 12.22 v -8.742 h -12.06 V 465.84 h -10.56 v 37.051" style="fill:#242d49;fill-opacity:1;fill-rule:nonzero;stroke:none" id="path76"/><path d="m 1034.63,937.207 c -54.942,0 -94.134,-32.273 -94.134,-81.07 v -0.766 c 0,-53.406 34.965,-68.394 89.134,-82.223 44.95,-11.527 54.18,-19.207 54.18,-34.195 v -0.769 c 0,-15.75 -14.6,-25.356 -38.81,-25.356 -30.73,0 -56.094,12.68 -80.297,32.656 l -34.961,-41.879 c 32.27,-28.808 73.378,-43.031 114.108,-43.031 58.02,0 98.74,29.973 98.74,83.375 v 0.77 c 0,46.875 -30.73,66.469 -85.29,80.679 -46.49,11.911 -58.019,17.676 -58.019,35.348 v 0.77 c 0,13.062 11.909,23.433 34.579,23.433 3.78,0 7.6,-0.371 11.42,-0.91 v 52.746 c -3.52,0.207 -7.03,0.422 -10.65,0.422" style="fill:#242d49;fill-opacity:1;fill-rule:nonzero;stroke:none" id="path78"/><path d="m 1326.29,937.973 c -82.98,0 -143.31,-62.621 -143.31,-139.082 v -0.766 c 0,-2.016 0.21,-3.977 0.29,-5.973 h 61.88 c -0.16,2.235 -0.31,4.469 -0.31,6.739 v 0.773 c 0,46.102 33.05,83.754 80.69,83.754 47.64,0 81.45,-38.418 81.45,-84.527 v -0.766 c 0,-46.102 -33.04,-83.762 -80.69,-83.762 -2.83,0 -5.61,0.153 -8.34,0.422 v -54.617 c 2.52,-0.129 5,-0.352 7.58,-0.352 82.99,0 143.3,62.622 143.3,139.075 v 0.773 c 0,76.453 -59.55,138.309 -142.54,138.309" style="fill:#242d49;fill-opacity:1;fill-rule:nonzero;stroke:none" id="path80"/><path d="m 1913.36,933.363 -70.31,-189.414 -30.98,83.461 h -62.12 l 66.2,-164.91 h 52.25 l 108.73,270.863 h -63.77" style="fill:#52b39d;fill-opacity:1;fill-rule:nonzero;stroke:none" id="path82"/></g></g></svg>